# xmcd
# Copyright (C) 1995-1998 Ti Kan
#
# Track frame offsets:
#       150
#       18185
#       32703
#       50356
#       66600
#       87507
#       105982
#       132775
#       151515
#       171612
#       193120
#       217892
#       242716
#       257817
#       275742
#       295984
#
# Disc length: 4239 seconds
#
# Revision: 0
# Processed by: cddbd v1.5.2PL0 Copyright (c) Steve Scherf et al.
# Submitted via: CD-Transfer v1.0
#
DISCID=e8108d10
DTITLE=Sampler - 
DYEAR=85
DGENRE=
TTITLE0=Boney M. Happy Song
TTITLE1=Dead Or Alive You Spin Me Round (Like A Record)
TTITLE2=Rock Springfield Celebrate Youth
TTITLE3=Jennifer Rush Destiny
TTITLE4=Cock Brown When Your Heart Is Weak
TTITLE5=Münchner Freiheit Ohne Dich (Schlaf' Ich Heut Nacht Nicht Ein)
TTITLE6=The Hooters All You Zombies
TTITLE7=Billy Ocean Loverboy
TTITLE8=Paul Young Every Time You Go Away
TTITLE9=Jermaine Jackson Do What You Do
TTITLE10=Modern Talking You're My Heart You're My Soul
TTITLE11=Mr.mister Brocken Wings
TTITLE12=King Love and Pride
TTITLE13=Alison Moyet Invisible
TTITLE14=Cyndi Lauper All Trought The Night
TTITLE15=Flash and The Pan Mifnight Man
EXTD=
EXTT0=
EXTT1=
EXTT2=
EXTT3=
EXTT4=
EXTT5=
EXTT6=
EXTT7=
EXTT8=
EXTT9=
EXTT10=
EXTT11=
EXTT12=
EXTT13=
EXTT14=
EXTT15=
PLAYORDER=
